<?xml version="1.0" encoding="utf-8"?>
<!-- Generator: Adobe Illustrator 13.0.0, SVG Export Plug-In . SVG Version: 6.00 Build 14948)  -->
<!DOCTYPE svg PUBLIC "-//W3C//DTD SVG 1.1//EN" "http://www.w3.org/Graphics/SVG/1.1/DTD/svg11.dtd">
<svg version="1.1" id="图层_1" xmlns="http://www.w3.org/2000/svg" xmlns:xlink="http://www.w3.org/1999/xlink" x="0px" y="0px"
	 width="3500px" height="3508px" viewBox="0 0 3500 3508" enable-background="new 0 0 3500 3508" xml:space="preserve">
<rect x="2" y="2" display="none" stroke="#1FF2FF" stroke-width="4" width="3496" height="3504"/>
<path opacity="0.2" fill="#3F99FF" stroke="#1FF2FF" stroke-width="4" d="M907.453,986.005l-35.998,47.998l-92.996,17.999
	l-13.499,46.498l-13.5,10.5l-23.999,3l-6-6l-47.998,46.498l-12-1.5l-29.999,65.997l12,29.999l52.498,16.499
	c0,0-32.999,64.497,13.499,106.495s26.999,40.498,35.999,59.997s17.999,50.997,17.999,50.997s6,10.5,16.499,13.5s23.999,6,23.999,6
	l32.998,31.499c0,0,29.999,0,40.498-1.5s23.999-13.499,23.999-13.499s17.999-1.5,17.999,7.5s13.498,79.495,25.497,95.995
	s15,9,9,32.999s20.999,40.499,23.999,52.498s34.499,31.499,10.5,46.498s-37.498-6-47.998,1.5s-24,25.499-25.499,29.999
	s-9,11.999-19.499,11.999s-26.999,38.998-26.999,38.998s4.5,15-3,26.999s-12,18-12,29.999s-1.5,11.999-12,10.499
	s-29.999,25.499-32.999,29.999s-1.5,19.5,3,26.999s33.178,21.23-61.496,16.498c-29.999-1.5-28.499-53.997-28.499-53.997l-32.999,3
	l-14.999,22.499l-17.999,13.5l-6,46.498l-22.499,15l-77.996-19.499l-40.498,16.499l-12,22.499l-73.497,6l-4.5,41.998h-26.999l-12-15
	l-47.998,53.998l-29.999,9l-29.999,17.999l-6,20.999l-19.499,6l-37.498,35.998l-26.999,25.499l-10.5,62.997l-29.999,32.998
	l-4.5,55.498l29.999-3l56.997,38.998l17.999,31.499l50.998,40.499l-19.499,31.498c0,0-4.5,13.498,10.5,16.498s26.999-1.5,12,18
	c-15,19.498-12,35.998-12,35.998l-9,18l19.499,31.498c0,0,26.998,0,68.996,35.998c-10.5,32.998-9,20.998-19.499,32.998
	s-31.414-1.367-71.996,23.998c0,0-10.5,0-22.499-13.498c-12-13.5-20.041-18.957-53.997,14.998c-7.5,7.5-32.999,3-32.999,3
	s-15,10.5-4.5,41.998s40.498,55.498,50.998,53.998s34.498-13.5,29.999,11.998c-4.5,25.5,12,76.498,12,76.498s-1.5,19.498-12,32.998
	c-10.5,13.498-0.159,23.934-0.159,23.934s-20,18-16,32s40-4,48,8s18,24,18,44s0,44,0,44l41-16l37,48c0,0,16,8,24,8s56-26,56-26
	l18,12c0,0,46-12,62-22s32,40,32,40s0,32,6,38s34,14,34,14l36,44l20,60c0,0,18-4,38,6s76,2,76,2s14,4,12-16s2-48,2-48h28
	c0,0-10-48,32-20c34-2,34-2,34-2l10-28l18-6l10-36c0,0-18,0-12-12s16-16,32,4s24,28,38,44s36-8,42-8s-8-62,8-52s12,40,20,44
	s16-4,24-18s30,20,40,24s110,2.002,110,2.002l70,3.998l10-22l62-4l6,8l37.333,1.334l32.667,66.666c0,0,18,6,12,18s-18,42-2,56
	s60,52,86,50c11.333,19.334,56,62.668,64.666,78.668c14,12,77.334-10.668,103.334,1.332s62,24,66,14s8-28,6-36s-3.433-51.186-52-72
	c-14-6-16-56-16-56s26,12,32,12s20-24,20-24l12-4l48-22v-24l46-12l30-34v-54c0,0,49-1,63-15s-11.875-43.242,34-38c35,4,23,23,23,23
	s40,38,46,42s27-29,27-29l71,21l16,10l34-4l-26-40l86-6l26,42l16-22c0,0,20-32,34-26s46-8,46-8l-16-36l44-44c0,0-22-18,4-18
	s38-24,48-22s30,0,30,0l-38-80c0,0-14-20,6-24s40-6,38-26s-36-48-16-54s18-8,22-30c18,0,32-6,32-6s0-18-4-50c0,0-1.804-76.256-38-96
	c-22-12-16,6-14,16s26,58-18,10s-52-46-52-46l-52-58c0,0-14-24-42-4s-16-16-20-30c-4-14,8-110-22-118s-22-14-14-30s20-48,16-74
	s4-60,42-48s42-20,52-36s38-10,56,8s42-10,80-8s42-2,52-2s30,2,44,26c38,10,54,6,62,6s20-14,30-26s58-44,92-48s46-2,60,10
	s18-12,36-18s26-6,34-4s10-34,20-34s52-14,52-14l14,4l40-52c0,0,6,12,18,14s26-8,26-8s8-16,22-14s4-24,12-28s24-4,30-6s6-6,20-8
	s44-26,26-58c30-22,36-26,52-20s36-4,32-14s-20,4-28-4s-16-38,6-42c-12-12-28-18-12-24s22-20,2-24s-54-10-56-20s-22-72-22-72l-60-14
	c0,0-6-42-36-54s-8-52-8-52s-22-12-22-26s-16-52-16-52l-18-4c0,0-24-18,12-52c-18-36-12-48,24-72s20-28,20-28l-52-40c0,0,2-10-4-20
	s-16-12-16-12l-22-56l12-24c0,0,34-12,46-4s18-12,18-12s-24-42-2-60s50-26,72-36s24-28,24-28s40-10,64,4s44,32,44,32l26-20l24,2
	l20-14c0,0-28-60-22-76s18-54,18-54l80-14l10,16l28,4c0,0,0-46,6-48s-2-50-54-38c-42-8-92-22-100-22c0,0-82,28-100,32s-12,18-20,24
	s-64,0-76-8s-40-38-40-38l-22,10c0,0-36-20-48-26s-44-24-50-18s-28,0-28,0s-38,4-52,2s-34-12-40-30c0,0-80,28-94,26s-26,12-26,12
	l-106-30c0,0-6-30-28-40s6-28-26-42c0,0-19,0-8-23c-6-17-4-29-4-38c-14-1-42-9-42-9s-5-16-5-25s-6-8-8-13s-19-4-13-40
	c-5-12-13-16-20-16s-13-8-13-13s-29-21-43-24s-19-9-19-13s-12-8-16-6s-9,20-9,20s-9,3-8-14s-10-29-10-29s-21-35-54-50
	c-10-1-8,3-8-14c-10-7-25-11-34-12s-29-24-29-33s13-32,13-35s-9-16-9-16h-22l-28-47l-2-9l-14-23l12-19l-1-40l20-32l-13-57l-13-1
	l-72-38l-22,15l-9,1l1,8l-2,14l7,28l1,32l-6,9l-2,45l-30,25l-26-11l-14-14l-20-8l-13,11l-17-2l-23,7l-11,14l-5,3l-38-4l-11-5l-18,6
	l-16-14l-15,18l-11,40l4,8l20,46l9,8l13,60c0,0,0,8-6,8s-14-3-14-3l-6-5l-34,2c0,0-9-4-11-8s-16,7-24,4s-37-17-62-76
	c-6-11-19.902-14.737-29-2c-5,7-25,14-32,16s-23,34-4,62s107,116,110,128s-2,15,6,22s42,25,42,25s8,11,8,21s11,22,11,22l17,3l12,53
	l-16,12l-43,1l-23,13l-6-39l-27,2l-33,10c0,0-33,8-48-3c-18,2-36,3-36,3s-17,5-15,23s-5,21-5,21l-29-23l-25-1c0,0-1-23-18-41
	s-17-18-17-18s-9-4-27,15c-3,23-6,36-6,41s-4,20-4,20l-7,3l-15,21c0,0,5,35-11,55c-28,0-39-1-39-1l-10,17c0,0,2,21-11,29
	c-1,5,8,7,3,25s-14,41-14,41s-4,8-22,4s-18-7-24,4s-8,15-18,18s-23,9-15,36s18,31-21,42s-88,32-100,37s-26,2-26,2l-26,19v25l-37-2
	l-10-42l-34-8l-14-23l-31-1L907.453,986.005z"/>
<path fill="none" stroke="#1FE3FF" stroke-width="6" d="M907.128,983.667l-35.998,47.998l-92.996,17.999l-13.499,46.498l-13.5,10.5
	l-23.999,3l-6-6l-47.998,46.498l-12-1.5l-29.999,65.997l12,29.999l52.498,16.499c0,0-32.999,64.497,13.499,106.495
	s26.999,40.498,35.999,59.997s17.999,50.997,17.999,50.997s6,10.5,16.499,13.5s23.999,6,23.999,6l32.998,31.499
	c0,0,29.999,0,40.498-1.5s23.999-13.499,23.999-13.499s17.999-1.5,17.999,7.5s13.498,79.495,25.497,95.995s15,9,9,32.999
	s20.999,40.499,23.999,52.498s34.499,31.499,10.5,46.498s-37.498-6-47.998,1.5s-24,25.499-25.499,29.999s-9,11.999-19.499,11.999
	s-26.999,38.998-26.999,38.998s4.5,15-3,26.999s-12,18-12,29.999s-1.5,11.999-12,10.499s-29.999,25.499-32.999,29.999
	s-1.5,19.5,3,26.999s33.178,21.23-61.496,16.498c-29.999-1.5-28.499-53.997-28.499-53.997l-32.999,3l-14.999,22.499l-17.999,13.5
	l-6,46.498l-22.499,15l-77.996-19.499l-40.498,16.499l-12,22.499l-73.497,6l-4.5,41.998h-26.999l-12-15l-47.998,53.998l-29.999,9
	l-29.999,17.999l-6,20.999l-19.499,6l-37.498,35.998l-26.999,25.499l-10.5,62.997l-29.999,32.998l-4.5,55.498l29.999-3
	l56.997,38.998l17.999,31.499l50.998,40.498l-19.499,31.498c0,0-4.5,13.499,10.5,16.499s26.999-1.5,12,17.999s-12,35.999-12,35.999
	l-9,17.999l19.499,31.498c0,0,26.998,0,68.996,35.998c-10.5,32.998-9,20.998-19.499,32.998s-31.414-1.366-71.996,23.999
	c0,0-10.5,0-22.499-13.499s-20.041-18.957-53.997,14.999c-7.5,7.5-32.999,3-32.999,3s-15,10.5-4.5,41.998
	s40.498,55.497,50.998,53.997s34.498-13.5,29.999,11.999s12,76.497,12,76.497s-1.5,19.499-12,32.998S238,2992,238,2992s-20,18-16,32
	s40-4,48,8s18,24,18,44s0,44,0,44l41-16l37,48c0,0,16,8,24,8s56-26,56-26l18,12c0,0,46-12,62-22s32,40,32,40s0,32,6,38s34,14,34,14
	l36,44l20,60c0,0,18-4,38,6s76,2,76,2s14,4,12-16s2-48,2-48h28c0,0-10-48,32-20c34-2,34-2,34-2l10-28l18-6l10-36c0,0-18,0-12-12
	s16-16,32,4s24,28,38,44s36-8,42-8s-8-62,8-52s12,40,20,44s16-4,24-18s30,20,40,24s110,2.001,110,2.001l70,3.999l10-22l62-4l6,8
	l37.333,1.334L1434,3254c0,0,18,6,12,18s-18,42-2,56s60,52,86,50c11.333,19.333,56,62.667,64.667,78.667
	c14,12,77.333-10.667,103.333,1.333s62,24,66,14s8-28,6-36s-3.433-51.186-52-72c-14-6-16-56-16-56s26,12,32,12s20-24,20-24l12-4
	l48-22v-24l46-12l30-34v-54c0,0,49-1,63-15s-11.875-43.243,34-38c35,4,23,23,23,23s40,38,46,42s27-29,27-29l71,21l16,10l34-4l-26-40
	l86-6l26,42l16-22c0,0,20-32,34-26s46-8,46-8l-16-36l44-44c0,0-22-18,4-18s38-24,48-22s30,0,30,0l-38-80c0,0-14-20,6-24s40-6,38-26
	s-36-48-16-54s18-8,22-30c18,0,32-6,32-6s0-18-4-50c0,0-1.804-76.257-38-96c-22-12-16,6-14,16s26,58-18,10s-52-46-52-46l-52-58
	c0,0-14-24-42-4s-16-16-20-30s8-110-22-118s-22-14-14-30s20-48,16-74s4-60,42-48s42-20,52-36s38-10,56,8s42-10,80-8s42-2,52-2
	s30,2,44,26c38,10,54,6,62,6s20-14,30-26s58-44,92-48s46-2,60,10s18-12,36-18s26-6,34-4s10-34,20-34s52-14,52-14l14,4l40-52
	c0,0,6,12,18,14s26-8,26-8s8-16,22-14s4-24,12-28s24-4,30-6s6-6,20-8s44-26,26-58c30-22,36-26,52-20s36-4,32-14s-20,4-28-4
	s-16-38,6-42c-12-12-28-18-12-24s22-20,2-24s-54-10-56-20s-22-72-22-72l-60-14c0,0-6-42-36-54s-8-52-8-52s-22-12-22-26s-16-52-16-52
	l-18-4c0,0-24-18,12-52c-18-36-12-48,24-72s20-28,20-28l-52-40c0,0,2-10-4-20s-16-12-16-12l-22-56l12-24c0,0,34-12,46-4s18-12,18-12
	s-24-42-2-60s50-26,72-36s24-28,24-28s40-10,64,4s44,32,44,32l26-20l24,2l20-14c0,0-28-60-22-76s18-54,18-54l80-14l10,16l28,4
	c0,0,0-46,6-48s-2-50-54-38c-42-8-92-22-100-22c0,0-82,28-100,32s-12,18-20,24s-64,0-76-8s-40-38-40-38l-22,10c0,0-36-20-48-26
	s-44-24-50-18s-28,0-28,0s-38,4-52,2s-34-12-40-30c0,0-80,28-94,26s-26,12-26,12l-106-30c0,0-6-30-28-40s6-28-26-42c0,0-19,0-8-23
	c-6-17-4-29-4-38c-14-1-42-9-42-9s-5-16-5-25s-6-8-8-13s-19-4-13-40c-5-12-13-16-20-16s-13-8-13-13s-29-21-43-24s-19-9-19-13
	s-12-8-16-6s-9,20-9,20s-9,3-8-14s-10-29-10-29s-21-35-54-50c-10-1-8,3-8-14c-10-7-25-11-34-12s-29-24-29-33s13-32,13-35s-9-16-9-16
	h-22l-28-47l-2-9l-14-23l12-19l-1-40l20-32l-13-57l-13-1l-72-38l-22,15l-9,1l1,8l-2,14l7,28l1,32l-6,9l-2,45l-30,25l-26-11l-14-14
	l-20-8l-13,11l-17-2l-23,7l-11,14l-5,3l-38-4l-11-5l-18,6l-16-14l-15,18l-11,40l4,8l20,46l9,8l13,60c0,0,0,8-6,8s-14-3-14-3l-6-5
	l-34,2c0,0-9-4-11-8s-16,7-24,4s-37-17-62-76c-6-11-19.902-14.737-29-2c-5,7-25,14-32,16s-23,34-4,62s107,116,110,128s-2,15,6,22
	s42,25,42,25s8,11,8,21s11,22,11,22l17,3l12,53l-16,12l-43,1l-23,13l-6-39l-27,2l-33,10c0,0-33,8-48-3c-18,2-36,3-36,3s-17,5-15,23
	s-5,21-5,21l-29-23l-25-1c0,0-1-23-18-41s-17-18-17-18s-9-4-27,15c-3,23-6,36-6,41s-4,20-4,20l-7,3l-15,21c0,0,5,35-11,55
	c-28,0-39-1-39-1l-10,17c0,0,2,21-11,29c-1,5,8,7,3,25s-14,41-14,41s-4,8-22,4s-18-7-24,4s-8,15-18,18s-23,9-15,36s18,31-21,42
	s-88,32-100,37s-26,2-26,2l-26,19v25l-37-2l-10-42l-34-8l-14-23l-31-1L907.128,983.667z"/>
<g id="图层_2">
	<g opacity="0.25">
		<path fill="none" stroke="#A8ABA8" stroke-width="4" d="M1000,1730c0,0,24,4,18-36c0,0,0-29,7-37s-5-12-5-12l3-25l-12-11l11-28
			l14,3l17-7l29,10l19,42c0,0,6,5,17-2s15-7,19-24s9-19,12-20s27-12,46,7c25,0,30,5,30,5s15,38,20,38s7,5,18,0s14-7,14-7l-2-38
			l14-28c0,0-11-28-2-31s54-28,54-28s7,9,14,8s42-30,42-30s16,20,24,22s26-3,40-13s26-6,38-1s13-2,14-6s-1.402-47.356-1.402-47.356
			l13.5-19.499c0,0-31.498-64.497,10.5-109.495c-22.499-44.998-22.499-44.998-22.499-44.998s47.998-19.499,52.498-23.999
			s74.996,0,74.996,0s6,37.498,16.499,38.998s52.497-12,62.997-3s55.498,0,55.498,0s-4.5-18,13.499-10.5s38.999,12,44.998,13.5
			s40.497-25.499,40.497-25.499s0-20.999-11.999-31.499s-23.999-31.499-44.998-20.999c0,0-37.497,0-23.998-29.999
			s23.999-38.998,40.498-46.498s25.497-34.498,37.497-55.497s31.499-46.498,29.999-70.497s13.499-31.499,13.499-31.499l35.998-3
			l11.999-16.5l-41.997-17.999l-13.5-19.499h-22.499c0,0-7.499-13.5-7.499-19.499s3-19.499-14.999-19.499s-46.498,3-41.998-14.999
			s4.5-26.999,16.499-31.499s19.499-32.998,19.499-47.998s10.499-53.998,10.499-53.998s-11.999-3-16.499-16.499
			s-37.498-44.998-37.498-44.998l-22.499-3"/>
		<path fill="none" stroke="#A8ABA8" stroke-width="4" d="M1513,1481c0,0,18-17,34-12s46,34,50,35s24,2,46,23s27,49,34,50s20,2,27,9
			s24,6,37,9s36,27,27,45s-7,14,1,25s7,20,7,20l16-1l11,14h11l6,14l32,27l34-2l40-32l53,8l33,37l2,9h18l13-21l29,8l34-9
			c0,0,33,18,11,34c0,0,6,37,13,38s13-10,18-20s76-100,76-100l7-25l37-35c0,0,15-32-15-30s-20-25-20-25l-19,11l-12-22l-1-34l-21-31
			l-12-37l33-11l-9-63l4-46l-36-72c0,0-13-3-8-12s10-37,10-37l28-40l-15-39l-51-21l32-23l18,1c0,0,11-20,8-34s-12-67-12-67l-6-10
			l12-15l-10-22l12-18l4-81l37-29l35-33l40,12c0,0,22-33-1-91v-29c0,0,18,27,26,26s15-5,27-2s31-11,32-21s0-25,0-25l24-12l4-12l20-4
			v-20l30-15"/>
		<path fill="none" stroke="#A8ABA8" stroke-width="4" d="M2226,1689c0,0,23.562,22.13,40.061,20.63s28.499-29.999,35.998-28.499
			s47.997,10.5,47.997,10.5s25.672-52.761,29.999-53.998c31.498-9,26.998,12,35.998,23.999c0,0,6.001,22.499,26.999,29.999
			c0,22.499,3,44.998,14.999,61.497s7.5,46.497,20.999,52.497s13.563,12.718,44.997-3c17.999-9,23.999,10.499,23.999,10.499
			l38.998-22.499l-22.499-47.998l31.499-50.998l53.997-23.999l-1.5-13.499l10.499-13.5l3-41.998l41.998-44.998l23.999,4.5l-3,25.499
			l74.996-55.497l23.999,19.499l50.997-32.999l3-13.5l14.999,10.5l50.998-17.999c0,0,19.498,6,28.498,6s31.499-10.5,31.499-10.5"/>
		<polyline fill="none" stroke="#A8ABA8" stroke-width="4" points="2577.332,2186.667 2610,2146 2612,2120 2592,2056 2596,2000 
			2596,1954 2564,1932 2560,1904 2540.5,1866.667 2547.5,1815.75 		"/>
		<path fill="none" stroke="#A8ABA8" stroke-width="4" d="M2014,2256c0,0,4,8,11,11s16,1,25,9s33,33,23,37s-23,14-15,18s13,61,13,61
			l-16,8l-14,46l-4,50l-8,16l-2,10l28,6v10l-13,5l-7,26l7,22l-26,18l-7,53l-16,4l-12,11l-12-7l-10-22l-31-7h-20l6,13l-16-6l2,28
			l6,28l-4,18l-4,16l11,18l-6,4l10,16l1,17l-7,6l-15-3l-7-14v22l-4,6l15,4l1,12l-2,6l18,9l-9,7h-15c3,4,12,9,12,9l-12,9l5,8l4,19
			l11,7l13-1l35-3l4,19l10,1l3-4l34-2l9-23l38-11c0,0,18,21,18,30s8,32,8,32l11,21l10,3l10,13l56,11l3,60l28,13l8,54"/>
		<path fill="none" stroke="#A8ABA8" stroke-width="4" d="M1794,2101l24,17l26,6l20,20h32c0,0,16,22,18,34s42,32,49,46s39,28,47,32
			s14-24,18-30s6,16,16,16s24,2,34,8s34,10,34,10s66-22,74-20s50,4,50,4s6,16,40,16"/>
		<path fill="none" stroke="#A8ABA8" stroke-width="4" d="M818,1972l68,26c4,10,32,52,50,58s58,58,62,68s28-2,46,0s28,24,42,12
			s62-52,62-52s18-42,32-44s52,10,60,8s66-24,66-24s24-40,30-48s36-22,36-22l22,40l56,10l-10,64l24-2l12,26c0,0,8,22,16,22
			s22,46,34,46s28,2,36,12s46-24,56-28s12,14,22,12s10-2,10-2l-10,26c0,0,0,18,12,16s48,4,48,4l24-44c0,0,50,18,56,2s10-34,10-34
			l4-23l36-21c0,0,4-36-2-48s-14-52-14-52s12-10,18-12s-14-6-22-18s16-54,16-54s-24-26-24-44s18-44,18-44l8-44l44-26"/>
		<path fill="none" stroke="#A8ABA8" stroke-width="4" d="M366,2684l40,2l30-70l30-52l20,2l12-24l46-12c0,0,14-32,26-32s16,2,58-20
			s48-28,58-24s50,8,50,8l28,16l24,28c0,0,12,4,26-4s46-34,78-30s62-6,62-6l32-6l60,90v12l12,20l-8,16l-24-16l-2,24l12,22l26-18
			c0,0,70,4,86,14s18,6,16-6s-6-40-6-40l60-16c0,0,46-24,66-28s20-4,18-16s-24-52-24-52l-20-11l-1-7l-22-20l7-27v-15l3-61l40-13
			l5-18l32-4c0,0,15-13-2-24s-44-32-44-32l-67,1c0,0-35,7-45-48s-18-78-18-78l-30-1"/>
		<path fill="none" stroke="#A8ABA8" stroke-width="4" d="M1304.5,2527.5l28.606,8.589l22.499,7.499l19.499-4.499L1388,2554l15.5-1
			c0,0,9.5-26,20.5-29s33-8,33-8l-0.571-6.047L1452,2463l-69-1l-2-15l10-3l3-19l7-7l-50-73l-4-23l-8-8l-10,16c0,0-5-2-10-9
			s-14,1-14,1l-18-22"/>
		<path fill="none" stroke="#A8ABA8" stroke-width="4" d="M1456.429,2509.953L1520,2513l-3,19l42-22l23-1v-77l-9-20l15-2l43-1l6-43
			l20-9c0,0-2-32-6-42s-40-76-40-76l36-13c0,0,29-10,30-16s-2-13-2-13"/>
		<path fill="none" stroke="#A8ABA8" stroke-width="4" d="M1676.833,2376H1733l2,19l16,1l8,12l-3,34l-15,1l-0.5,57l21.5-2l1,24
			l12,11l-15,7l-1,20l-43,4l-7,28l-27-1l-5-16l-15,0.333l2-11l21-4.333l-1.666-51.333L1674,2488l1-22c0,0,12-7,14-12s-16-79-16-79
			l2-20l-18,2"/>
		<path fill="none" stroke="#A8ABA8" stroke-width="4" d="M1759,2560l-2,25l13,1l22,8l3,16v12l-20-7l-5-8l-13,4l-1,10l-3,6l-2,9
			l-10,1l-4,17h-19l-4,6l9,22l-14,4l12,10l9,4l-3,6l6,6v18l-15,4l-15,4l-24-3l1,30l1,18l-7,3l-8-21l-5-18l-7,3l-19-5l-3-11l1-20h-13
			l-10-8l-19-3l-13,9l-9,4l-5,24l-11,18l-6,23c0,0-9,7-12-4s-6-21-6-21l-8-27l-13-13l-49,7l-9-9l-31-54l-21-1l-25,40l-5,45
			c0,0-1,9-13,8s-35-1-35-1l-18,33c0,0-10,5-18,5s-38-3-38-3l-2-22l9-13l-16-18l-33,25l-18-30l1-43l4-17l2-17l-30-22"/>
		<polyline fill="none" stroke="#A8ABA8" stroke-width="4" points="1737,2654 1753,2652 1757,2668 1772,2667 1785,2679 1800,2682 
			1803,2692 1819,2692 1835,2676 1845,2682 1854,2675 1853,2664 1858,2659 1868,2653 1882,2654 1893,2649 1898,2648 		"/>
		<path fill="none" stroke="#A8ABA8" stroke-width="4" d="M1450,2714l-2.898,35.079v31.498v26.999l-9,35.998l9,20.999l-10.5,28.427
			l-16.499,13.571l-7.5,7.499l-6,46.498l-10.5,9c0,0,18,46.498,7.5,59.997s-10.5,37.498-10.5,37.498v31.498l-3,20.999l20.999,32.998
			l-12,34.498"/>
		<polyline fill="none" stroke="#A8ABA8" stroke-width="4" points="1565,2513.334 1569.667,2558.667 1603.667,2558 
			1615.667,2569.334 1661.667,2564 		"/>
	</g>
</g>
<g>
	<path fill="none" stroke="#008CB4" stroke-width="6" d="M1661.5,2376.531l-29,14c0,0,2.313,84.375,2.5,86s2,4.5-0.5,6
		s-10-1.5-11.5,1s1,58.5,1,58.5s1,2,3,2s11.5,2,22.5-0.5s69.23-9.848,80.5-7.5l7.75,1.5c0,0,34.5,2.5,36.5,1.75s1.5,0,2.75-3.5
		s3.5-11.5,3.5-13.75s-3.75-37.5-3.75-37.5s0.25-3.5-3.75-4.75s-7.25,1.5-8.25-6.75s-3.75-92.5-3.75-92.5s0-5.75-6.75-5.75
		S1661.5,2376.531,1661.5,2376.531z"/>
	<path fill="none" stroke="#008CB4" stroke-width="6" d="M1558,2348.531c-1,2,6,103.5,4,159c-0.5,27.5,4.5,42.5,5,48
		s14,23.5,18.5,27s17.5,7,44.5-4s25.5-11,84.5-11c12,0,24,2,37-3c9.5-2,24-1,28.5-1s9.5-3,9.5-3s13-12.5,16-16s-0.5-170.5-0.5-170.5
		s-0.5-8.5-5.5-12.5s-31.5-26-31.5-26s-2-3.5-9-3.5c-4.057,0-62.52,2.952-111,4.5c-35.174,1.123-64.975,0.974-65.5,1
		C1581.25,2337.594,1559,2346.531,1558,2348.531z"/>
	<path fill="none" stroke="#008CB4" stroke-width="6" d="M1546,2299.531c0,0-5-1.5-10,4s-13,16-28,23.5c-5.5,3.5-4,11.5-4,11.5
		s1.5,34,0,51.5s1,59.5,0,105.5c0,11,5.5,31.5,13.5,52.5c0,0-0.167,40,0.833,44.666s5.333,12.666,9,26.334
		c1.667,4.332,7,4.332,10,4.332c60,3.002,147.999-3.666,170-3.666c22,0,10.334,0.334,27.334,0.334c0,0,52.666,1,66-2
		c0,0,13.998-1.666,20.332-7.666s16.668-17,16.668-17s3.666-2,6.332-11.668c2.668-9.666,6.334-54.334,6.334-61.666
		c0-7.334,0-151.667,0-151.667s1.334-8.333-8-18.667s-60-52-60-52l-12.666-5.333H1694l-79.667,5.333L1546,2299.531z"/>
	<path fill="none" stroke="#008CB4" stroke-width="6" d="M1513.667,2241.698c0,0-12-1.333-15.333,9.333s-6.667,8.667-13.333,9.333
		s-18,0-30,6.667s-28,10.667-28,10.667s-9.333,4-10,16s-8,77.333-8,77.333s-4.667,9.333-5.333,14.667s-1.333,110-1.333,110
		s-4.667,17.332-6.667,26.666s14.667,33.334,16,38.668c1.333,5.332,5.333,6,8,24.666c1.333,7.334,21.333,32.666,21.333,32.666
		s17.333,4.668,22.667,12.668s24,38,24,38s2,10,1.333,14.666s12.667,46.666,12.667,46.666s11.333,18.002,28,7.334
		c16.667-10.666,22-14,40.667-10.666c18.667,3.332,74.667,7.332,82.667,8c8,0.666,10,8.666,11.334,17.332
		c1.332,8.668,2.666,25.334,16.666,20c14-5.332,52-17.332,52-17.332s6.666-4.668,9.334-14.668c2.666-10,6-36,46-34
		c0,0,16.84,6.779,38-26.666c12.916-20.416,19.5-19.5,35.334-27.334c15.832-7.832,11.676-3.564,24.582-13.832
		c21.805-17.348,50.289-46.063,55-52.5c6-9.5,6.75-3.75,4.75-21s-1-58.5-1-58.5l-7.25-53l-3.25-60.75c0,0-6.75-13.5-9.75-18.25
		s-6.5-10.75-10.25-21.25s-47.75-86.25-57.5-97s-13-19.5-24-19.75s-29.75,0.75-29.75,0.75s-8-2.75-12.5-4.75s-24.25-11-37.5-11
		s-150.75-1.5-150.75-1.5s-16.75,7.75-19.25,8.25s-14,1.75-16.75,2.5S1513.667,2241.698,1513.667,2241.698z"/>
	<path fill="none" stroke="#008CB4" stroke-width="6" d="M1624.063,2541.688c0,0-4.563,47.344-5.063,62.344s-1.5,47-1.5,47
		s2,30,4,43s2.5,19-3,26.5c-5,11-4,40.5-3,63.5L1614,2893c0,0-22,51-26,69s-6,218-6,218s-4,28-12,38s-36,40-36,40l-4,18l-22,96"/>
	<path fill="none" stroke="#008CB4" stroke-width="6" d="M2295.334,2407.334l-70.667,22c0,0-135.334,3.333-141.334,2.667
		s-32,26.667-32,26.667l-79.333,0.365l-503.5,3.5l-104-1c0,0-1.833-1.197-5.833-7.197s-4-6-4-6l-12.667-20.667"/>
	<path fill="none" stroke="#008CB4" stroke-width="6" d="M2315.999,3116.667c0,0-247.332-223.334-249.999-224.667
		s-97-121.969-97-121.969c-6.5-11.5-19.5-35.5-33.5-50s-17.5-27.5-26-40s-47.5-46.5-47.5-46.5l-45.5-52l-23-23.5"/>
	<path fill="none" stroke="#008CB4" stroke-width="6" d="M2396.667,3027.999c0,0-281.334-289.334-306-317.334
		S1970,2610.531,1970,2610.531l-33.461-18.063"/>
	<path fill="none" stroke="#008CB4" stroke-width="6" d="M1672.5,2375.031l3.5-59.5c0,0,0.5-16.5-7.5-30.5s-64.5-111-64.5-111
		S1507,2036,1504,2027s-89-210-89-210s-1-10,1-31s-12-107-12-107s-6-18-18-28s-171-162-208-248c-11-21-17-21-24-25s-99-55-131-126
		c-8-17-18-20-24-22s-40-21-40-21s-13-3-22,5s-242,134-242,134"/>
	<path fill="none" stroke="#008CB4" stroke-width="6" d="M1758,2330.531"/>
	<path fill="none" stroke="#008CB4" stroke-width="6" d="M1756.5,2331.531l23.5-47c0,0,16-49.5,20-61.5s24.5-25,28.5-30.5
		s10.5-17,10.5-20L1853,1928c0,0,6-127,124-191s180-34,215-33s64-14,71-31s10.142-63.462,212-181c79-46,164-72,194-50
		s48.979,41.959,57,38c158-78,198.979-14.162,212-229c0,0,5-19-23-40s-31-18-30-33s18-77,85-128s103-80,102-85s1-4,1-19s1-77,1-77"
		/>
	<path fill="none" stroke="#008CB4" stroke-width="6" d="M1357,1929l-36,45c0,0-6,90-9,99s-70,119-70,119s0,4-2,10s-2,51-2,51
		s-3,4-5,8s-17,20-17,20s-1,6,4,18s85,198,85,198s6,7-1,21s-56,101-56,101l-24,260c0,0-1,11,12,15s318,17,318,17s7-2,20-7
		s120-51,120-51s10-3,30-5s59-4,100-13s202-61,202-61s5-6,22-24s141-201,141-201s8-6,7-40s4-200,4-200s3-15-7-26s-122-192-122-192
		s-5-5-7-18s-18-80-18-80s-3-15-16-16s-476-74-476-74s-11-2-34,0S1357,1929,1357,1929z"/>
</g>
<g display="none">
	<path display="inline" fill="none" stroke="#1A557B" stroke-width="3" d="M1661.5,2376.531l-29,14c0,0,2.313,84.375,2.5,86
		s2,4.5-0.5,6s-10-1.5-11.5,1s1,58.5,1,58.5s1,2,3,2s11.5,2,22.5-0.5s69.23-9.848,80.5-7.5l7.75,1.5c0,0,34.5,2.5,36.5,1.75
		s1.5,0,2.75-3.5s3.5-11.5,3.5-13.75s-3.75-37.5-3.75-37.5s0.25-3.5-3.75-4.75s-7.25,1.5-8.25-6.75s-3.75-92.5-3.75-92.5
		s0-5.75-6.75-5.75S1661.5,2376.531,1661.5,2376.531z"/>
	<path display="inline" fill="none" stroke="#1A557B" stroke-width="3" d="M1558,2348.531c-1,2,6,103.5,4,159
		c-0.5,27.5,4.5,42.5,5,48s14,23.5,18.5,27s17.5,7,44.5-4s25.5-11,84.5-11c12,0,24,2,37-3c9.5-2,24-1,28.5-1s9.5-3,9.5-3
		s13-12.5,16-16s-0.5-170.5-0.5-170.5s-0.5-8.5-5.5-12.5s-31.5-26-31.5-26s-2-3.5-9-3.5c-4.057,0-62.52,2.952-111,4.5
		c-35.174,1.123-64.975,0.974-65.5,1C1581.25,2337.594,1559,2346.531,1558,2348.531z"/>
	<path display="inline" fill="none" stroke="#1A557B" stroke-width="3" d="M1546,2299.531c0,0-5-1.5-10,4s-13,16-28,23.5
		c-5.5,3.5-4,11.5-4,11.5s1.5,34,0,51.5s1,59.5,0,105.5c0,11,5.5,31.5,13.5,52.5c0,0-0.167,40,0.833,44.666s5.333,12.666,9,26.334
		c1.667,4.332,7,4.332,10,4.332c60,3.002,147.999-3.666,170-3.666c22,0,10.334,0.334,27.334,0.334c0,0,52.666,1,66-2
		c0,0,13.998-1.666,20.332-7.666s16.668-17,16.668-17s3.666-2,6.332-11.668c2.668-9.666,6.334-54.334,6.334-61.666
		c0-7.334,0-151.666,0-151.666s1.334-8.334-8-18.667s-60-52-60-52l-12.666-5.333H1694l-79.667,5.333L1546,2299.531z"/>
	<path display="inline" fill="none" stroke="#1A557B" stroke-width="3" d="M1513.667,2241.697c0,0-12-1.332-15.333,9.334
		s-6.667,8.667-13.333,9.334c-6.667,0.666-18,0-30,6.666s-28,10.666-28,10.666s-9.333,4-10,16s-8,77.334-8,77.334
		s-4.667,9.333-5.333,14.666c-0.667,5.334-1.333,110-1.333,110s-4.667,17.333-6.667,26.667s14.667,33.334,16,38.668
		c1.333,5.332,5.333,6,8,24.666c1.333,7.334,21.333,32.666,21.333,32.666s17.333,4.668,22.667,12.668s24,38,24,38s2,10,1.333,14.666
		s12.667,46.666,12.667,46.666s11.333,18.002,28,7.334c16.667-10.666,22-14,40.667-10.666c18.667,3.332,74.667,7.332,82.667,8
		c8,0.666,10,8.666,11.334,17.332c1.332,8.668,2.666,25.334,16.666,20c14-5.332,52-17.332,52-17.332s6.666-4.668,9.334-14.668
		c2.666-10,6-36,46-34c0,0,16.84,6.779,38-26.666c12.916-20.416,19.5-19.5,35.334-27.334c15.832-7.832,11.676-3.564,24.582-13.832
		c21.805-17.348,50.289-46.063,55-52.5c6-9.5,6.75-3.75,4.75-21s-1-58.5-1-58.5l-7.25-53l-3.25-60.75c0,0-6.75-13.5-9.75-18.25
		s-6.5-10.75-10.25-21.25s-47.75-86.25-57.5-97s-13-19.5-24-19.75s-29.75,0.75-29.75,0.75s-8-2.75-12.5-4.75s-24.25-11-37.5-11
		s-150.75-1.5-150.75-1.5s-16.75,7.75-19.25,8.25s-14,1.75-16.75,2.5S1513.667,2241.697,1513.667,2241.697z"/>
	<path display="inline" fill="none" stroke="#1A557B" stroke-width="3" d="M1624.063,2541.688c0,0-4.563,47.344-5.063,62.344
		s-1.5,47-1.5,47s2,30,4,43s2.5,19-3,26.5c-5,11-4,40.5-3,63.5L1614,2893c0,0-22,51-26,69s-6,218-6,218s-4,28-12,38s-36,40-36,40
		l-4,18l-22,96"/>
	<path display="inline" fill="none" stroke="#1A557B" stroke-width="3" d="M2295.334,2407.334l-70.667,22
		c0,0-135.334,3.332-141.334,2.666s-32,26.666-32,26.666l-79.333,0.365l-503.5,3.5l-104-1c0,0-1.833-1.197-5.833-7.197s-4-6-4-6
		l-12.667-20.666"/>
	<path display="inline" fill="none" stroke="#1A557B" stroke-width="3" d="M2315.999,3116.668c0,0-247.332-223.334-249.999-224.668
		c-2.667-1.332-97-121.969-97-121.969c-6.5-11.5-19.5-35.5-33.5-50s-17.5-27.5-26-40s-47.5-46.5-47.5-46.5l-45.5-52l-23-23.5"/>
	<path display="inline" fill="none" stroke="#1A557B" stroke-width="3" d="M2396.667,3028c0,0-281.334-289.334-306-317.334
		S1970,2610.531,1970,2610.531l-33.461-18.063"/>
	<path display="inline" fill="none" stroke="#1A557B" stroke-width="3" d="M1672.5,2375.031l3.5-59.5c0,0,0.5-16.5-7.5-30.5
		s-64.5-111-64.5-111S1507,2036,1504,2027s-89-210-89-210s-1-10,1-31s-12-107-12-107s-6-18-18-28s-171-162-208-248
		c-11-21-17-21-24-25s-99-55-131-126c-8-17-18-20-24-22s-40-21-40-21s-13-3-22,5s-242,134-242,134"/>
	<path display="inline" fill="none" stroke="#1A557B" stroke-width="3" d="M1758,2330.531"/>
	<path display="inline" fill="none" stroke="#1A557B" stroke-width="3" d="M1756.5,2331.531l23.5-47c0,0,16-49.5,20-61.5
		s24.5-25,28.5-30.5s10.5-17,10.5-20L1853,1928c0,0,6-127,124-191s180-34,215-33s64-14,71-31s10.142-63.462,212-181
		c79-46,164-72,194-50s48.979,41.959,57,38c158-78,198.979-14.162,212-229c0,0,5-19-23-40s-31-18-30-33s18-77,85-128s103-80,102-85
		s1-4,1-19s1-77,1-77"/>
	<path display="inline" fill="none" stroke="#1A557B" stroke-width="3" d="M1357,1929l-36,45c0,0-6,90-9,99s-70,119-70,119s0,4-2,10
		s-2,51-2,51s-3,4-5,8s-17,20-17,20s-1,6,4,18s85,198,85,198s6,7-1,21s-56,101-56,101l-24,260c0,0-1,11,12,15s318,17,318,17
		s7-2,20-7s120-51,120-51s10-3,30-5s59-4,100-13s202-61,202-61s5-6,22-24s141-201,141-201s8-6,7-40c-1-34,4-200,4-200s3-15-7-26
		s-122-192-122-192s-5-5-7-18s-18-80-18-80s-3-15-16-16s-476-74-476-74s-11-2-34,0S1357,1929,1357,1929z"/>
</g>
<g id="图层_3">
	<text transform="matrix(1 0 0 1 1282 1150)" fill="#52D6CC" font-family="'MicrosoftYaHei'" font-size="50">延庆</text>
	<text transform="matrix(1 0 0 1 1970 1078)" fill="#52D6CC" font-family="'MicrosoftYaHei'" font-size="50">怀柔</text>
	<text transform="matrix(1 0 0 1 2550 1182)" fill="#52D6CC" font-family="'MicrosoftYaHei'" font-size="50">密云</text>
	<text transform="matrix(1 0 0 1 1326 1786)" fill="#52D6CC" font-family="'MicrosoftYaHei'" font-size="50">昌平</text>
	<text transform="matrix(1 0 0 1 2134 2002)" fill="#52D6CC" font-family="'MicrosoftYaHei'" font-size="50">顺义</text>
	<text transform="matrix(1 0 0 1 2846 1870)" fill="#52D6CC" font-family="'MicrosoftYaHei'" font-size="50">平谷</text>
	<text transform="matrix(1 0 0 1 692 2284)" fill="#52D6CC" font-family="'MicrosoftYaHei'" font-size="50">门头沟</text>
	<text transform="matrix(1 0 0 1 756 2904)" fill="#52D6CC" font-family="'MicrosoftYaHei'" font-size="50">房山</text>
	<text transform="matrix(1 0 0 1 1680 3036)" fill="#52D6CC" font-family="'MicrosoftYaHei'" font-size="50">大兴</text>
	<text transform="matrix(1 0 0 1 2196 2748)" fill="#52D6CC" font-family="'MicrosoftYaHei'" font-size="50">通州</text>
</g>
</svg>
