<?xml version="1.0" encoding="utf-8"?>
<!-- Generator: Adobe Illustrator 13.0.0, SVG Export Plug-In . SVG Version: 6.00 Build 14948)  -->
<!DOCTYPE svg PUBLIC "-//W3C//DTD SVG 1.1//EN" "http://www.w3.org/Graphics/SVG/1.1/DTD/svg11.dtd">
<svg version="1.1" id="图层_1" xmlns="http://www.w3.org/2000/svg" xmlns:xlink="http://www.w3.org/1999/xlink" x="0px" y="0px"
	 width="3508.58px" height="2338.51px" viewBox="0 0 3508.58 2338.51" enable-background="new 0 0 3508.58 2338.51"
	 xml:space="preserve">
<rect y="138.509" width="2194.978" height="2200"/>
<path opacity="0.2" fill="#3F99FF" stroke="#1FF2FF" stroke-width="4" d="M567.346,754.853l-22.602,30.136l-58.388,11.301
	l-8.475,29.193l-8.476,6.592l-15.068,1.884l-3.767-3.767l-30.135,29.194l-7.534-0.942l-18.834,41.436l7.534,18.835l32.961,10.359
	c0,0-20.718,40.495,8.475,66.863c29.194,26.369,16.952,25.427,22.602,37.669c5.65,12.242,11.3,32.018,11.3,32.018
	s3.767,6.592,10.359,8.476c6.592,1.883,15.067,3.767,15.067,3.767l20.718,19.776c0,0,18.834,0,25.427-0.941
	c6.592-0.942,15.068-8.476,15.068-8.476s11.301-0.942,11.301,4.708s8.475,49.911,16.008,60.271
	c7.534,10.359,9.418,5.651,5.651,20.718c-3.767,15.068,13.184,25.427,15.067,32.961c1.884,7.534,21.66,19.776,6.592,29.194
	c-15.068,9.417-23.543-3.767-30.135,0.941c-6.592,4.708-15.068,16.01-16.01,18.835c-0.941,2.825-5.651,7.534-12.243,7.534
	s-16.951,24.485-16.951,24.485s2.826,9.418-1.883,16.952c-4.709,7.533-7.534,11.301-7.534,18.834s-0.942,7.534-7.534,6.592
	c-6.592-0.941-18.835,16.009-20.718,18.834s-0.941,12.243,1.884,16.952c2.825,4.708,20.831,13.329-38.611,10.358
	c-18.834-0.941-17.893-33.902-17.893-33.902l-20.718,1.883l-9.417,14.126l-11.301,8.476l-3.767,29.194l-14.125,9.417l-48.97-12.242
	l-25.427,10.358l-7.534,14.127l-46.145,3.767l-2.825,26.368h-16.951l-7.534-9.417l-30.136,33.902l-18.835,5.65l-18.834,11.301
	l-3.767,13.185l-12.242,3.767l-23.543,22.602l-16.952,16.01l-6.592,39.553l-18.835,20.718l-2.825,34.845l18.835-1.884l35.786,24.486
	l11.301,19.775l32.019,25.428l-12.242,19.775c0,0-2.825,8.475,6.592,10.359c9.417,1.883,16.952-0.941,7.534,11.301
	s-7.534,22.602-7.534,22.602l-5.65,11.301l12.243,19.777c0,0,16.951,0,43.319,22.602c-6.592,20.717-5.65,13.184-12.243,20.717
	c-6.592,7.535-19.724-0.857-45.203,15.068c0,0-6.592,0-14.126-8.475c-7.534-8.477-12.583-11.902-33.902,9.416
	c-4.709,4.709-20.718,1.883-20.718,1.883s-9.417,6.594-2.825,26.369s25.427,34.846,32.019,33.902
	c6.592-0.941,21.66-8.475,18.834,7.533c-2.825,16.012,7.534,48.029,7.534,48.029s-0.942,12.242-7.534,20.719
	c-6.592,8.475-0.1,15.027-0.1,15.027s-12.557,11.301-10.045,20.09c2.511,8.791,25.114-2.51,30.137,5.023
	c5.022,7.535,11.301,15.068,11.301,27.625c0,12.559,0,27.627,0,27.627l25.742-10.047l23.231,30.139c0,0,10.045,5.021,15.068,5.021
	s35.16-16.324,35.16-16.324l11.302,7.535c0,0,28.881-7.535,38.927-13.813c10.045-6.279,20.091,25.113,20.091,25.113
	s0,20.092,3.767,23.859c3.767,3.766,21.347,8.789,21.347,8.789l22.603,27.625l12.557,37.672c0,0,11.301-2.512,23.858,3.768
	c12.557,6.277,47.717,1.256,47.717,1.256s8.79,2.512,7.534-10.047c-1.255-12.557,1.256-30.137,1.256-30.137h17.58
	c0,0-6.279-30.137,20.091-12.557c21.347-1.256,21.347-1.256,21.347-1.256l6.278-17.58l11.301-3.768l6.279-22.602
	c0,0-11.302,0-7.534-7.535c3.767-7.533,10.045-10.045,20.091,2.512c10.046,12.557,15.069,17.58,23.859,27.625
	c8.79,10.047,22.603-5.021,26.37-5.021s-5.023-38.928,5.023-32.648c10.045,6.277,7.534,25.113,12.557,27.625
	c5.022,2.512,10.045-2.512,15.068-11.301c5.023-8.791,18.835,12.557,25.114,15.068c6.278,2.512,69.064,1.256,69.064,1.256
	l43.95,2.51l6.278-13.813l38.927-2.512l3.767,5.023l23.44,0.838l20.51,41.857c0,0,11.301,3.766,7.534,11.301
	c-3.767,7.533-11.301,26.369-1.256,35.16c10.046,8.789,37.671,32.648,53.996,31.393c7.116,12.139,35.16,39.346,40.601,49.391
	c8.79,7.535,48.554-6.697,64.878,0.838c16.324,7.533,38.927,15.068,41.438,8.789c2.511-6.279,5.022-17.58,3.767-22.604
	c-1.256-5.021-2.154-32.137-32.648-45.205c-8.789-3.766-10.045-35.16-10.045-35.16s16.324,7.535,20.091,7.535
	s12.558-15.068,12.558-15.068l7.533-2.512l30.138-13.813v-15.068l28.882-7.535l18.835-21.346v-33.904c0,0,30.765-0.629,39.555-9.418
	c8.79-8.791-7.456-27.15,21.347-23.859c21.976,2.512,14.441,14.441,14.441,14.441s25.113,23.857,28.881,26.369
	s16.952-18.207,16.952-18.207l44.577,13.186l10.047,6.277l21.346-2.512l-16.324-25.113l53.996-3.768l16.324,26.371l10.045-13.814
	c0,0,12.558-20.09,21.348-16.324c8.79,3.768,28.881-5.021,28.881-5.021l-10.045-22.604l27.625-27.625
	c0,0-13.813-11.303,2.512-11.303s23.858-15.068,30.137-13.813c6.279,1.256,18.836,0,18.836,0l-23.858-50.229
	c0,0-8.79-12.557,3.767-15.068c12.558-2.51,25.115-3.766,23.859-16.324c-1.256-12.557-22.604-30.137-10.046-33.904
	c12.557-3.766,11.302-5.021,13.813-18.834c11.302,0,20.091-3.768,20.091-3.768s0-11.301-2.511-31.393
	c0,0-1.133-47.877-23.858-60.273c-13.813-7.535-10.046,3.766-8.79,10.045s16.324,36.416-11.302,6.279
	c-27.625-30.139-32.648-28.883-32.648-28.883l-32.648-36.414c0,0-8.789-15.07-26.369-2.512
	c-17.58,12.557-10.046-10.047-12.558-18.836c-2.511-8.789,5.022-69.064-13.813-74.086c-18.836-5.023-13.813-8.79-8.79-18.836
	s12.557-30.137,10.045-46.461c-2.511-16.324,2.512-37.672,26.371-30.137c23.857,7.534,26.369-12.558,32.648-22.604
	c6.277-10.045,23.857-6.278,35.159,5.023c11.302,11.301,26.37-6.279,50.229-5.023s26.37-1.256,32.648-1.256
	s18.835,1.256,27.626,16.324c23.857,6.279,33.903,3.768,38.927,3.768c5.022,0,12.557-8.79,18.835-16.324
	c6.279-7.534,36.416-27.626,57.763-30.137c21.347-2.512,28.882-1.256,37.671,6.278c8.79,7.534,11.302-7.534,22.604-11.302
	c11.301-3.767,16.324-3.767,21.347-2.511s6.278-21.348,12.558-21.348c6.278,0,32.647-8.79,32.647-8.79l8.79,2.512l25.114-32.648
	c0,0,3.768,7.534,11.302,8.79s16.324-5.022,16.324-5.022s5.022-10.046,13.813-8.79s2.512-15.068,7.534-17.58
	c5.023-2.512,15.068-2.512,18.836-3.768c3.767-1.255,3.767-3.767,12.557-5.022s27.626-16.324,16.324-36.415
	c18.836-13.813,22.603-16.324,32.648-12.558c10.046,3.768,22.603-2.512,20.092-8.79c-2.512-6.278-12.558,2.512-17.58-2.511
	s-10.046-23.858,3.767-26.37c-7.534-7.534-17.579-11.301-7.534-15.068c10.046-3.767,13.813-12.557,1.256-15.068
	c-12.557-2.511-33.903-6.279-35.159-12.557s-13.813-45.206-13.813-45.206l-37.671-8.79c0,0-3.768-26.37-22.603-33.904
	c-18.836-7.534-5.023-32.648-5.023-32.648s-13.813-7.534-13.813-16.324s-10.046-32.648-10.046-32.648l-11.301-2.512
	c0,0-15.068-11.301,7.534-32.648c-11.302-22.603-7.534-30.137,15.068-45.206s12.557-17.58,12.557-17.58l-32.648-25.114
	c0,0,1.256-6.278-2.511-12.557c-3.768-6.279-10.046-7.535-10.046-7.535l-13.813-35.16l7.534-15.068c0,0,21.347-7.534,28.881-2.512
	c7.534,5.023,11.302-7.534,11.302-7.534s-15.068-26.37-1.256-37.671c13.813-11.302,31.393-16.324,45.205-22.603
	c13.813-6.278,15.069-17.58,15.069-17.58s25.113-6.279,40.183,2.511c15.068,8.79,27.625,20.091,27.625,20.091l16.324-12.557
	l15.068,1.256l12.558-8.79c0,0-17.58-37.671-13.813-47.717c3.768-10.046,11.302-33.904,11.302-33.904l50.229-8.79l6.278,10.046
	l17.58,2.511c0,0,0-28.881,3.767-30.137c3.768-1.256-1.256-31.393-33.903-23.858c-26.37-5.023-57.763-13.813-62.786-13.813
	c0,0-51.483,17.58-62.785,20.091c-11.301,2.511-7.534,11.301-12.557,15.068c-5.023,3.767-40.183,0-47.717-5.022
	c-7.535-5.023-25.114-23.859-25.114-23.859l-13.813,6.279c0,0-22.603-12.557-30.137-16.324s-27.625-15.068-31.393-11.301
	s-17.58,0-17.58,0s-23.858,2.511-32.648,1.255c-8.79-1.255-21.347-7.534-25.114-18.835c0,0-50.228,17.58-59.018,16.324
	s-16.324,7.534-16.324,7.534l-66.553-18.835c0,0-3.767-18.836-17.58-25.114s3.767-17.58-16.324-26.37c0,0-11.929,0-5.022-14.44
	c-3.768-10.673-2.512-18.208-2.512-23.858c-8.79-0.628-26.37-5.651-26.37-5.651s-3.14-10.045-3.14-15.696s-3.767-5.023-5.022-8.162
	c-1.255-3.139-11.929-2.511-8.162-25.114c-3.14-7.535-8.162-10.046-12.557-10.046c-4.396,0-8.162-5.023-8.162-8.162
	s-18.208-13.185-26.998-15.068c-8.79-1.884-11.929-5.651-11.929-8.162c0-2.512-7.535-5.023-10.046-3.767
	c-2.512,1.255-5.651,12.557-5.651,12.557s-5.65,1.883-5.022-8.79c0.628-10.674-6.278-18.208-6.278-18.208
	s-13.186-21.975-33.904-31.393c-6.278-0.628-5.022,1.884-5.022-8.79c-6.278-4.395-15.696-6.906-21.347-7.534
	c-5.651-0.628-18.209-15.068-18.209-20.719s8.162-20.091,8.162-21.975c0-1.883-5.65-10.045-5.65-10.045h-13.813l-17.58-29.509
	l-1.256-5.65l-8.789-14.441l7.533-11.929l-0.627-25.114l12.557-20.091l-8.162-35.788l-8.162-0.628l-45.205-23.858l-13.813,9.418
	l-5.651,0.628l0.628,5.022l-1.256,8.79l4.395,17.58l0.629,20.091l-3.768,5.651l-1.256,28.253l-18.836,15.696l-16.324-6.907
	l-8.789-8.79l-12.558-5.023l-8.162,6.906l-10.673-1.256l-14.441,4.396l-6.906,8.79l-3.139,1.884l-23.859-2.511l-6.906-3.14
	l-11.301,3.767l-10.046-8.79l-9.418,11.301l-6.906,25.114l2.511,5.023l12.558,28.881l5.651,5.023l8.162,37.671
	c0,0,0,5.022-3.768,5.022s-8.79-1.883-8.79-1.883l-3.767-3.139l-21.348,1.255c0,0-5.65-2.511-6.906-5.023
	c-1.256-2.511-10.046,4.396-15.068,2.512c-5.023-1.884-23.23-10.674-38.927-47.717c-3.767-6.907-12.496-9.253-18.208-1.256
	c-3.14,4.395-15.696,8.79-20.091,10.046c-4.395,1.255-14.441,21.347-2.512,38.927s67.181,72.831,69.064,80.365
	c1.884,7.534-1.256,9.418,3.768,13.813c5.022,4.396,26.369,15.697,26.369,15.697s5.023,6.906,5.023,13.185
	c0,6.278,6.906,13.813,6.906,13.813l10.674,1.884l7.533,33.276l-10.045,7.535l-26.998,0.627l-14.44,8.162l-3.767-24.486
	l-16.953,1.256l-20.719,6.279c0,0-20.719,5.022-30.137-1.884c-11.302,1.256-22.603,1.884-22.603,1.884s-10.673,3.139-9.417,14.44
	c1.255,11.301-3.14,13.185-3.14,13.185l-18.208-14.441l-15.696-0.628c0,0-0.628-14.44-11.301-25.742
	c-10.674-11.301-10.674-11.301-10.674-11.301s-5.65-2.512-16.952,9.417c-1.883,14.441-3.767,22.603-3.767,25.742
	s-2.511,12.557-2.511,12.557l-4.395,1.883l-9.418,13.185c0,0,3.14,21.975-6.906,34.532c-17.58,0-24.486-0.628-24.486-0.628
	l-6.278,10.673c0,0,1.255,13.185-6.907,18.208c-0.628,3.14,5.023,4.396,1.884,15.696c-3.139,11.302-8.79,25.742-8.79,25.742
	s-2.511,5.023-13.813,2.512c-11.302-2.512-11.302-4.395-15.069,2.511s-5.023,9.418-11.301,11.301
	c-6.278,1.884-14.44,5.651-9.418,22.603c5.023,16.952,11.302,19.463-13.185,26.37s-55.251,20.091-62.786,23.23
	c-7.534,3.14-16.324,1.256-16.324,1.256l-16.324,11.929v15.696l-23.23-1.255l-6.279-26.37l-21.347-5.023l-8.79-14.44l-19.463-0.628
	L567.346,754.853z"/>
<g id="图层_2">
	<g opacity="0.25">
		<path fill="none" stroke="#A8ABA8" stroke-width="3" d="M626.598,1223.441c0,0,15.068,2.511,11.301-22.603
			c0,0,0-18.208,4.395-23.23s-3.139-7.534-3.139-7.534l1.883-15.696l-7.534-6.907l6.907-17.58l8.79,1.883l10.674-4.395l18.208,6.278
			l11.929,26.37c0,0,3.767,3.139,10.674-1.256c6.906-4.395,9.417-4.395,11.929-15.068c2.511-10.674,5.65-11.93,7.534-12.557
			c1.883-0.628,16.952-7.535,28.881,4.395c15.696,0,18.835,3.139,18.835,3.139s9.418,23.858,12.557,23.858s4.395,3.139,11.301,0
			s8.79-4.395,8.79-4.395l-1.256-23.858l8.79-17.58c0,0-6.906-17.58-1.256-19.463c5.651-1.883,33.904-17.58,33.904-17.58
			s4.395,5.651,8.79,5.023s26.37-18.835,26.37-18.835s10.046,12.557,15.069,13.813c5.022,1.256,16.324-1.883,25.114-8.162
			c8.79-6.278,16.324-3.767,23.859-0.627c7.534,3.139,8.162-1.256,8.79-3.768c0.628-2.511-0.88-29.733-0.88-29.733l8.476-12.242
			c0,0-19.776-40.495,6.592-68.747c-14.126-28.252-14.126-28.252-14.126-28.252s30.136-12.243,32.961-15.068
			c2.825-2.826,47.086,0,47.086,0s3.767,23.543,10.358,24.485c6.593,0.942,32.961-7.534,39.553-1.883c6.593,5.65,34.846,0,34.846,0
			s-2.826-11.301,8.475-6.592s24.486,7.534,28.252,8.476c3.768,0.942,25.427-16.009,25.427-16.009s0-13.184-7.534-19.776
			c-7.533-6.592-15.067-19.777-28.252-13.185c0,0-23.543,0-15.066-18.834c8.475-18.835,15.067-24.485,25.426-29.194
			c10.359-4.708,16.009-21.66,23.543-34.844c7.535-13.184,19.777-29.194,18.835-44.261c-0.941-15.068,8.476-19.776,8.476-19.776
			l22.602-1.883l7.533-10.359l-26.367-11.301l-8.477-12.243h-14.126c0,0-4.708-8.476-4.708-12.243
			c0-3.767,1.883-12.242-9.418-12.242s-29.193,1.884-26.368-9.417s2.825-16.951,10.358-19.777
			c7.534-2.825,12.243-20.718,12.243-30.135s6.592-33.903,6.592-33.903s-7.534-1.883-10.358-10.359
			c-2.826-8.476-23.544-28.252-23.544-28.252l-14.126-1.883"/>
		<path fill="none" stroke="#A8ABA8" stroke-width="3" d="M948.687,1067.105c0,0,11.302-10.673,21.347-7.534
			c10.046,3.14,28.881,21.347,31.393,21.975c2.512,0.628,15.069,1.255,28.881,14.44c13.813,13.185,16.952,30.765,21.347,31.393
			c4.396,0.627,12.558,1.255,16.952,5.65s15.068,3.767,23.23,5.651c8.162,1.883,22.603,16.952,16.952,28.253
			c-5.651,11.301-4.396,8.79,0.628,15.696c5.022,6.906,4.395,12.557,4.395,12.557l10.046-0.628l6.906,8.79h6.907l3.767,8.79
			l20.091,16.952l21.348-1.255l25.113-20.091l33.277,5.022l20.719,23.231l1.256,5.65h11.301l8.162-13.185l18.208,5.023l21.347-5.65
			c0,0,20.72,11.301,6.906,21.347c0,0,3.768,23.231,8.162,23.859c4.396,0.627,8.162-6.279,11.302-12.557
			c3.14-6.279,47.718-62.786,47.718-62.786l4.395-15.696l23.23-21.975c0,0,9.418-20.092-9.418-18.836s-12.557-15.696-12.557-15.696
			l-11.93,6.906l-7.534-13.813l-0.628-21.347l-13.186-19.463l-7.533-23.23l20.719-6.907l-5.65-39.555l2.512-28.881L1356.164,934
			c0,0-8.162-1.883-5.022-7.534c3.14-5.65,6.278-23.23,6.278-23.23l17.58-25.114l-9.418-24.486l-32.021-13.185l20.091-14.44
			l11.302,0.628c0,0,6.907-12.557,5.022-21.347c-1.883-8.79-7.533-42.066-7.533-42.066l-3.768-6.279l7.534-9.417l-6.278-13.813
			l7.534-11.301l2.511-50.856l23.23-18.208l21.976-20.719l25.114,7.534c0,0,13.813-20.719-0.628-57.135v-18.208
			c0,0,11.302,16.952,16.324,16.324c5.022-0.627,9.418-3.139,16.952-1.255s19.463-6.906,20.092-13.185
			c0.627-6.278,0-15.696,0-15.696l15.068-7.534l2.511-7.534l12.558-2.512v-12.557l18.836-9.418"/>
		<path fill="none" stroke="#A8ABA8" stroke-width="3" d="M1396.348,1197.699c0,0,14.793,13.895,25.151,12.953
			s17.894-18.834,22.602-17.893c4.708,0.942,30.136,6.592,30.136,6.592s16.117-33.126,18.834-33.903
			c19.777-5.65,16.951,7.534,22.602,15.068c0,0,3.768,14.126,16.952,18.834c0,14.126,1.884,28.252,9.417,38.611
			s4.709,29.193,13.184,32.96c8.477,3.767,8.517,7.985,28.252-1.883c11.301-5.651,15.068,6.592,15.068,6.592l24.484-14.126
			l-14.125-30.135l19.776-32.019l33.902-15.068l-0.942-8.476l6.592-8.476l1.884-26.369l26.369-28.252l15.067,2.826l-1.884,16.009
			l47.087-34.844l15.068,12.243l32.019-20.718l1.884-8.476l9.417,6.592l32.02-11.301c0,0,12.241,3.767,17.893,3.767
			c5.65,0,19.776-6.592,19.776-6.592"/>
		<polyline fill="none" stroke="#A8ABA8" stroke-width="3" points="1598.545,1275.631 1593.493,1308.829 1606.051,1332.687 
			1608.562,1350.267 1628.652,1364.08 1628.652,1392.961 1626.142,1428.122 1638.699,1468.304 1637.443,1484.628 1619.863,1495.929 
			1616.096,1510.998 		"/>
		<path fill="none" stroke="#A8ABA8" stroke-width="3" d="M1263.242,1553.692c0,0,2.512,5.022,6.906,6.906
			s10.045,0.628,15.696,5.651c5.651,5.022,20.72,20.719,14.44,23.23c-6.278,2.511-14.44,8.79-9.418,11.301
			c5.023,2.512,8.162,38.299,8.162,38.299l-10.045,5.023l-8.791,28.881l-2.511,31.393l-5.022,10.045l-1.256,6.279l17.58,3.768v6.277
			l-8.162,3.141l-4.396,16.324l4.396,13.813l-16.324,11.301l-4.396,33.277l-10.046,2.51l-7.533,6.906l-7.535-4.395l-6.278-13.813
			l-19.464-4.395h-12.557l3.768,8.162l-10.046-3.768l1.255,17.58l3.768,17.58l-2.512,11.301l-2.511,10.047l6.906,11.301
			l-3.767,2.512l6.277,10.045l0.629,10.674l-4.396,3.768l-9.418-1.885l-4.395-8.789v13.813l-2.512,3.768l9.418,2.512l0.628,7.533
			l-1.256,3.768l11.301,5.65l-5.65,4.395h-9.418c1.884,2.512,7.535,5.65,7.535,5.65l-7.535,5.652l3.14,5.021l2.512,11.93
			l6.906,4.395l8.162-0.627l21.975-1.885l2.512,11.93l6.278,0.629l1.884-2.512l21.347-1.256l5.65-14.441l23.859-6.906
			c0,0,11.301,13.186,11.301,18.836s5.023,20.092,5.023,20.092l6.906,13.184l6.278,1.885l6.278,8.162l35.16,6.906l1.883,37.672
			l17.58,8.162l5.023,33.904"/>
		<path fill="none" stroke="#A8ABA8" stroke-width="3" d="M1125.114,1456.375l15.068,10.674l16.324,3.767l12.558,12.558h20.091
			c0,0,10.046,13.813,11.302,21.347s26.369,20.092,30.764,28.882c4.396,8.789,24.486,17.579,29.51,20.091s8.79-15.068,11.301-18.836
			c2.512-3.767,3.768,10.046,10.047,10.046c6.277,0,15.068,1.256,21.347,5.023c6.278,3.767,21.347,6.278,21.347,6.278
			s41.438-13.813,46.461-12.558c5.023,1.256,31.393,2.512,31.393,2.512s3.768,10.046,25.115,10.046"/>
		<path fill="none" stroke="#A8ABA8" stroke-width="3" d="M512.329,1375.381l42.694,16.324c2.511,6.278,20.091,32.648,31.393,36.416
			c11.301,3.767,36.416,36.415,38.927,42.693c2.512,6.279,17.58-1.256,28.881,0s17.58,15.068,26.37,7.534
			s38.927-32.648,38.927-32.648s11.301-26.369,20.091-27.625s32.648,6.278,37.671,5.022c5.022-1.256,41.438-15.068,41.438-15.068
			s15.068-25.114,18.835-30.137c3.767-5.023,22.603-13.813,22.603-13.813l13.813,25.114l35.16,6.279l-6.278,40.183l15.068-1.256
			l7.534,16.324c0,0,5.023,13.813,10.046,13.813c5.022,0,13.813,28.881,21.347,28.881s17.58,1.256,22.603,7.535
			c5.022,6.278,28.881-15.069,35.16-17.58c6.279-2.512,7.534,8.79,13.813,7.534c6.278-1.256,6.278-1.256,6.278-1.256l-6.278,16.324
			c0,0,0,11.302,7.534,10.046s30.137,2.511,30.137,2.511l15.068-27.625c0,0,31.393,11.301,35.16,1.256
			c3.768-10.046,6.278-21.348,6.278-21.348l2.512-14.44l22.603-13.185c0,0,2.512-22.603-1.256-30.138
			c-3.768-7.534-8.789-32.648-8.789-32.648s7.533-6.278,11.301-7.534c3.768-1.255-8.79-3.767-13.813-11.301
			c-5.023-7.534,10.045-33.904,10.045-33.904s-15.068-16.324-15.068-27.625s11.302-27.625,11.302-27.625l5.022-27.626l27.626-16.324
			"/>
		<path fill="none" stroke="#A8ABA8" stroke-width="3" d="M228.539,1822.414l25.114,1.256l18.835-43.951l18.836-32.648l12.557,1.256
			l7.534-15.068l28.881-7.533c0,0,8.79-20.092,16.324-20.092s10.045,1.256,36.416-12.557c26.37-13.813,30.137-17.58,36.416-15.068
			c6.278,2.51,31.393,5.021,31.393,5.021l17.58,10.047l15.068,17.58c0,0,7.534,2.51,16.324-2.512
			c8.79-5.023,28.881-21.348,48.973-18.836s38.927-3.768,38.927-3.768l20.091-3.768l37.671,56.508v7.533l7.534,12.559l-5.023,10.045
			l-15.068-10.045l-1.256,15.068l7.534,13.813l16.324-11.301c0,0,43.95,2.51,53.996,8.789s11.301,3.768,10.046-3.768
			c-1.256-7.533-3.768-25.113-3.768-25.113l37.671-10.047c0,0,28.881-15.068,41.438-17.58c12.557-2.51,12.557-2.51,11.301-10.045
			c-1.256-7.533-15.068-32.648-15.068-32.648l-12.557-6.906l-0.628-4.395l-13.813-12.557l4.395-16.953v-9.418l1.884-38.299
			l25.114-8.162l3.139-11.302l20.091-2.512c0,0,9.418-8.162-1.256-15.068c-10.673-6.906-27.625-20.091-27.625-20.091l-42.066,0.628
			c0,0-21.975,4.395-28.253-30.138c-6.279-34.531-11.302-48.973-11.302-48.973l-18.835-0.627"/>
		<path fill="none" stroke="#A8ABA8" stroke-width="3" d="M817.78,1724.154l17.96,5.393l14.126,4.709l12.243-2.826l8.097,9.363
			l9.731-0.629c0,0,5.965-16.324,12.871-18.207c6.906-1.885,20.719-5.023,20.719-5.023l-0.358-3.797l-2.781-29.479l-43.322-0.629
			l-1.256-9.418l6.278-1.883l1.884-11.93l4.395-4.395l-31.393-45.833l-2.511-14.44l-5.023-5.022l-6.278,10.045
			c0,0-3.139-1.256-6.278-5.65c-3.14-4.395-8.79,0.628-8.79,0.628l-11.302-13.813"/>
		<path fill="none" stroke="#A8ABA8" stroke-width="3" d="M913.169,1713.137l39.913,1.914l-1.883,11.93l26.37-13.814l14.441-0.627
			v-48.346l-5.651-12.556l9.418-1.256l26.998-0.628l3.767-26.997l12.557-5.651c0,0-1.256-20.091-3.767-26.37
			c-2.511-6.278-25.114-47.717-25.114-47.717l22.603-8.162c0,0,18.208-6.278,18.835-10.045c0.628-3.768-1.256-8.162-1.256-8.162"/>
		<path fill="none" stroke="#A8ABA8" stroke-width="3" d="M1039.098,1617.105l11.302-1.256l-1.256,12.558
			c0,0,11.302,46.46,10.046,49.601c-1.256,3.139-8.79,7.533-8.79,7.533v6.279l-0.628,7.533l5.023,10.674l-62.786,2.512"/>
		<polyline fill="none" stroke="#A8ABA8" stroke-width="3" points="1091.21,1708.145 1105.023,1705.633 1105.65,1720.701 
			1113.186,1727.607 1103.768,1732.002 1103.139,1744.559 1076.142,1747.07 1071.746,1764.65 1054.795,1764.023 1051.655,1753.977 
			1041.609,1753.977 1042.865,1747.07 1056.678,1744.559 1054.795,1710.027 1091.21,1708.145 1091.838,1671.102 1101.256,1670.473 
			1103.139,1649.125 1098.116,1641.591 1088.07,1640.963 1086.814,1629.035 1049.144,1628.407 		"/>
		<polyline fill="none" stroke="#A8ABA8" stroke-width="3" points="1042.865,1747.07 1010.845,1751.467 1005.194,1742.676 
			988.87,1742.676 983.847,1743.305 983.219,1711.91 		"/>
		<path fill="none" stroke="#A8ABA8" stroke-width="3" d="M1103.139,1744.559l-1.256,15.697l8.162,0.627l13.813,5.023l1.884,10.047
			v7.533l-12.557-4.395l-3.141-5.023l-8.162,2.512l-0.627,6.279l-1.884,3.766l-1.256,5.652l-6.278,0.627l-2.512,10.674h-11.929
			l-2.512,3.768l5.651,13.813l-8.791,2.512l7.535,6.277l5.65,2.512l-1.884,3.768l3.767,3.768v11.301l-9.417,2.512l-9.418,2.512
			l-15.068-1.885l0.628,18.836l0.627,11.301l-4.395,1.885l-5.022-13.186l-3.14-11.301l-4.395,1.883l-11.93-3.139l-1.883-6.906
			l0.628-12.559h-8.162l-6.279-5.021l-11.929-1.885l-8.162,5.652l-5.65,2.51l-3.14,15.068l-6.906,11.303l-3.767,14.439
			c0,0-5.651,4.396-7.534-2.51c-1.884-6.908-3.767-13.186-3.767-13.186l-5.023-16.953l-8.162-8.162l-30.765,4.396l-5.651-5.652
			l-19.463-33.902l-13.185-0.629l-15.696,25.115l-3.139,28.252c0,0-0.628,5.65-8.162,5.023s-21.975-0.627-21.975-0.627
			l-11.301,20.719c0,0-6.278,3.139-11.301,3.139s-23.858-1.883-23.858-1.883l-1.256-13.813l5.651-8.162l-10.046-11.303
			l-20.719,15.697l-11.301-18.836l0.628-26.998l2.511-10.674l1.256-10.674l-18.835-13.813"/>
		<polyline fill="none" stroke="#A8ABA8" stroke-width="3" points="1089.326,1803.578 1099.372,1802.322 1101.883,1812.367 
			1111.301,1811.74 1119.463,1819.273 1128.881,1821.158 1130.765,1827.436 1140.811,1827.436 1150.855,1817.391 1157.135,1821.158 
			1162.785,1816.764 1162.158,1809.855 1165.297,1806.717 1171.575,1802.949 1180.365,1803.578 1187.271,1800.439 
			1190.411,1799.811 		"/>
		<path fill="none" stroke="#A8ABA8" stroke-width="3" d="M909.132,1841.248l-1.82,22.025v19.775v16.953l-5.65,22.602l5.65,13.184
			l-6.592,17.848l-10.359,8.521l-4.708,4.707l-3.767,29.195l-6.592,5.65c0,0,11.301,29.193,4.709,37.67
			c-6.592,8.475-6.592,23.543-6.592,23.543v19.775l-1.883,13.184l13.184,20.719l-7.534,21.66"/>
	</g>
	<path opacity="0.42" fill="none" stroke="#1FF2FF" stroke-width="4" d="M3508.58,0"/>
</g>
<g>
	<path fill="none" stroke="#008CB4" stroke-width="4" d="M1041.924,1629.368l-18.208,8.79c0,0,1.452,52.975,1.569,53.997
		c0.118,1.02,1.256,2.824-0.313,3.766c-1.57,0.941-6.279-0.941-7.221,0.629c-0.941,1.568,0.628,36.729,0.628,36.729
		s0.628,1.256,1.884,1.256c1.255,0,7.22,1.256,14.126-0.314c6.906-1.568,43.466-6.182,50.542-4.709l4.865,0.943
		c0,0,21.662,1.568,22.917,1.098c1.256-0.471,0.942,0,1.727-2.197c0.785-2.197,2.198-7.221,2.198-8.633s-2.355-23.545-2.355-23.545
		s0.157-2.197-2.354-2.982c-2.512-0.785-4.553,0.941-5.18-4.238c-0.629-5.18-2.355-58.076-2.355-58.076s0-3.61-4.238-3.61
		C1095.919,1628.269,1041.924,1629.368,1041.924,1629.368z"/>
	<path fill="none" stroke="#008CB4" stroke-width="4" d="M976.94,1611.788c-0.628,1.256,3.767,64.984,2.512,99.83
		c-0.314,17.266,2.825,26.684,3.139,30.137s8.79,14.754,11.615,16.951c2.825,2.199,10.987,4.396,27.939-2.51
		c16.952-6.908,16.01-6.908,53.053-6.908c7.535,0,15.068,1.256,23.23-1.883c5.965-1.256,15.069-0.627,17.895-0.627
		s5.965-1.885,5.965-1.885s8.162-7.848,10.045-10.045c1.884-2.197-0.313-107.049-0.313-107.049s-0.313-5.337-3.453-7.849
		c-3.14-2.511-19.777-16.324-19.777-16.324s-1.256-2.197-5.651-2.197c-2.547,0-39.252,1.854-69.691,2.825
		c-22.084,0.705-40.794,0.611-41.124,0.628C991.538,1604.92,977.568,1610.533,976.94,1611.788z"/>
	<path fill="none" stroke="#008CB4" stroke-width="4" d="M969.406,1581.023c0,0-3.139-0.941-6.278,2.512s-8.162,10.046-17.58,14.755
		c-3.453,2.197-2.511,7.22-2.511,7.22s0.942,21.348,0,32.335s0.628,37.357,0,66.238c0,6.906,3.453,19.777,8.476,32.963
		c0,0-0.104,25.113,0.523,28.043c0.628,2.93,3.349,7.953,5.651,16.535c1.046,2.719,4.395,2.719,6.278,2.719
		c37.671,1.885,92.922-2.301,106.736-2.301c13.813,0,6.488,0.209,17.161,0.209c0,0,33.066,0.629,41.438-1.256
		c0,0,8.789-1.045,12.766-4.813s10.465-10.674,10.465-10.674s2.302-1.256,3.976-7.326c1.675-6.068,3.977-34.113,3.977-38.717
		c0-4.605,0-95.224,0-95.224s0.838-5.232-5.022-11.72c-5.86-6.488-37.672-32.648-37.672-32.648l-7.952-3.349h-47.509l-50.019,3.349
		L969.406,1581.023z"/>
	<path fill="none" stroke="#008CB4" stroke-width="4" d="M949.105,1544.712c0,0-7.534-0.837-9.627,5.86
		c-2.093,6.696-4.186,5.441-8.371,5.859c-4.186,0.419-11.302,0-18.836,4.186s-17.58,6.697-17.58,6.697s-5.86,2.512-6.279,10.046
		s-5.022,48.554-5.022,48.554s-2.931,5.86-3.349,9.209s-0.837,69.064-0.837,69.064s-2.93,10.881-4.186,16.742
		c-1.256,5.859,9.208,20.928,10.045,24.277c0.837,3.348,3.349,3.768,5.023,15.486c0.837,4.605,13.394,20.51,13.394,20.51
		s10.883,2.932,14.231,7.953c3.349,5.023,15.068,23.859,15.068,23.859s1.256,6.277,0.837,9.207s7.953,29.301,7.953,29.301
		s7.116,11.303,17.58,4.604c10.464-6.695,13.813-8.789,25.533-6.695c11.72,2.092,46.88,4.604,51.903,5.021
		c5.022,0.418,6.278,5.441,7.116,10.883c0.836,5.441,1.674,15.906,10.463,12.557c8.791-3.348,32.648-10.883,32.648-10.883
		s4.186-2.93,5.861-9.209c1.674-6.277,3.767-22.602,28.881-21.346c0,0,10.573,4.256,23.858-16.744
		c8.109-12.816,12.243-12.242,22.185-17.16c9.94-4.918,7.33-2.238,15.434-8.686c13.69-10.891,31.574-28.92,34.532-32.961
		c3.767-5.965,4.238-2.355,2.982-13.186s-0.628-36.73-0.628-36.73l-4.552-33.275l-2.04-38.142c0,0-4.238-8.477-6.122-11.459
		c-1.884-2.981-4.081-6.749-6.436-13.342c-2.354-6.592-29.979-54.152-36.102-60.901c-6.122-6.75-8.162-12.243-15.068-12.4
		c-6.907-0.157-18.679,0.471-18.679,0.471s-5.023-1.727-7.848-2.982c-2.826-1.255-15.227-6.906-23.545-6.906
		c-8.319,0-94.649-0.941-94.649-0.941s-10.516,4.866-12.086,5.18c-1.57,0.314-8.79,1.099-10.517,1.569
		C980.551,1538.33,949.105,1544.712,949.105,1544.712z"/>
	<path fill="none" stroke="#008CB4" stroke-width="4" d="M1018.418,1733.063c0,0-2.864,29.725-3.178,39.143
		s-0.942,29.508-0.942,29.508s1.256,18.836,2.512,26.998c1.255,8.162,1.569,11.93-1.884,16.639
		c-3.139,6.906-2.511,25.428-1.884,39.869l-0.941,68.416c0,0-13.813,32.021-16.324,43.322
		c-2.512,11.301-3.767,136.871-3.767,136.871s-2.512,17.58-7.535,23.859c-5.022,6.279-22.603,25.113-22.603,25.113l-2.511,11.303
		l-13.813,60.273"/>
	<path fill="none" stroke="#008CB4" stroke-width="4" d="M1439.879,1648.708l-44.369,13.812c0,0-84.97,2.094-88.736,1.674
		c-3.768-0.418-20.092,16.744-20.092,16.744l-49.81,0.229l-316.125,2.197l-65.297-0.627c0,0-1.15-0.752-3.662-4.52
		c-2.512-3.768-2.512-3.768-2.512-3.768l-7.953-12.975"/>
	<path fill="none" stroke="#008CB4" stroke-width="4" d="M1452.854,2094.064c0,0-155.289-140.221-156.963-141.057
		c-1.675-0.838-60.902-76.58-60.902-76.58c-4.08-7.219-12.242-22.289-21.033-31.393c-8.789-9.104-10.987-17.266-16.324-25.113
		c-5.336-7.848-29.822-29.195-29.822-29.195l-28.568-32.648l-14.439-14.754"/>
	<path fill="none" stroke="#008CB4" stroke-width="4" d="M1503.501,2038.395c0,0-176.637-181.66-192.124-199.24
		c-15.486-17.578-75.761-62.869-75.761-62.869l-21.009-11.34"/>
	<path fill="none" stroke="#008CB4" stroke-width="4" d="M1048.83,1628.426l2.197-37.357c0,0,0.314-10.359-4.709-19.149
		s-40.497-69.691-40.497-69.691s-60.902-86.664-62.785-92.314c-1.884-5.65-55.879-131.85-55.879-131.85s-0.628-6.278,0.627-19.463
		c1.256-13.185-7.534-67.18-7.534-67.18s-3.767-11.302-11.301-17.58s-107.363-101.712-130.594-155.708
		c-6.906-13.185-10.673-13.185-15.068-15.696c-4.395-2.511-62.158-34.532-82.249-79.109c-5.022-10.673-11.301-12.557-15.068-13.813
		c-3.767-1.255-25.114-13.185-25.114-13.185s-8.162-1.884-13.813,3.139c-5.651,5.023-151.941,84.132-151.941,84.132"/>
	<path fill="none" stroke="#008CB4" stroke-width="4" d="M1102.512,1600.487"/>
	<path fill="none" stroke="#008CB4" stroke-width="4" d="M1101.57,1601.115l14.754-29.51c0,0,10.045-31.078,12.557-38.612
		s15.383-15.696,17.895-19.149s6.592-10.674,6.592-12.558l8.791-153.53c0,0,3.767-79.737,77.854-119.919
		c74.086-40.183,113.014-21.347,134.988-20.719s40.183-8.79,44.578-19.463c4.395-10.674,6.367-39.845,133.104-113.642
		c49.601-28.881,102.968-45.206,121.804-31.393c18.836,13.813,30.752,26.345,35.787,23.859
		c99.201-48.973,124.931-8.892,133.105-143.779c0,0,3.14-11.929-14.44-25.114c-17.58-13.185-19.464-11.301-18.836-20.719
		c0.628-9.418,11.302-48.345,53.368-80.366c42.065-32.021,64.669-50.228,64.041-53.368c-0.628-3.139,0.628-2.511,0.628-11.929
		c0-9.418,0.628-48.345,0.628-48.345"/>
	<path fill="none" stroke="#008CB4" stroke-width="4" d="M850.742,1348.383l-22.603,28.254c0,0-3.767,56.507-5.651,62.157
		c-1.883,5.651-43.95,74.715-43.95,74.715s0,2.512-1.255,6.278c-1.256,3.768-1.256,32.021-1.256,32.021s-1.884,2.512-3.139,5.023
		c-1.256,2.511-10.673,12.557-10.673,12.557s-0.628,3.768,2.511,11.302s53.368,124.314,53.368,124.314s3.767,4.396-0.628,13.186
		c-4.395,8.791-35.16,63.414-35.16,63.414l-15.068,163.242c0,0-0.628,6.906,7.534,9.418c8.162,2.51,199.658,10.672,199.658,10.672
		s4.395-1.256,12.557-4.395s75.342-32.02,75.342-32.02s6.279-1.885,18.836-3.141s37.043-2.512,62.785-8.162
		s126.827-38.299,126.827-38.299s3.14-3.768,13.813-15.068c10.674-11.301,88.527-126.199,88.527-126.199s5.022-3.766,4.396-25.113
		c-0.629-21.348,2.512-125.571,2.512-125.571s1.883-9.418-4.396-16.324s-76.599-120.548-76.599-120.548s-3.139-3.14-4.395-11.302
		s-11.301-50.229-11.301-50.229s-1.885-9.417-10.047-10.045s-298.858-46.462-298.858-46.462s-6.906-1.255-21.347,0
		C938.642,1333.315,850.742,1348.383,850.742,1348.383z"/>
</g>
<path fill="none" stroke="#1FE3FF" stroke-width="6" d="M568.288,754.853l-22.602,30.135l-58.388,11.301l-8.476,29.194l-8.476,6.592
	l-15.068,1.883l-3.767-3.767l-30.136,29.194l-7.534-0.942l-18.835,41.437l7.534,18.834l32.961,10.359
	c0,0-20.718,40.495,8.475,66.863c29.194,26.369,16.952,25.427,22.602,37.669s11.3,32.019,11.3,32.019s3.767,6.592,10.359,8.476
	c6.592,1.883,15.068,3.767,15.068,3.767l20.718,19.777c0,0,18.834,0,25.427-0.942s15.068-8.476,15.068-8.476
	s11.301-0.942,11.301,4.708s8.475,49.912,16.008,60.271c7.534,10.359,9.418,5.65,5.651,20.718
	c-3.767,15.067,13.184,25.427,15.067,32.96c1.884,7.534,21.66,19.777,6.592,29.194s-23.543-3.767-30.136,0.942
	c-6.592,4.708-15.068,16.009-16.009,18.834c-0.942,2.825-5.651,7.534-12.243,7.534s-16.951,24.485-16.951,24.485
	s2.826,9.418-1.883,16.952s-7.534,11.301-7.534,18.834c0,7.534-0.942,7.533-7.534,6.592c-6.592-0.942-18.835,16.009-20.718,18.834
	s-0.942,12.243,1.884,16.951c2.825,4.709,20.831,13.33-38.611,10.358c-18.834-0.941-17.893-33.902-17.893-33.902l-20.719,1.884
	l-9.417,14.126l-11.301,8.476l-3.767,29.193l-14.125,9.418l-48.97-12.242l-25.427,10.358l-7.534,14.126l-46.145,3.767l-2.825,26.369
	h-16.951l-7.534-9.418l-30.135,33.903l-18.835,5.65l-18.834,11.301l-3.767,13.184l-12.243,3.768l-23.543,22.602l-16.952,16.009
	l-6.592,39.554l-18.834,20.718l-2.825,34.844l18.835-1.883l35.786,24.484l11.301,19.777l32.019,25.428l-12.243,19.775
	c0,0-2.825,8.475,6.592,10.359c9.417,1.883,16.952-0.941,7.534,11.301s-7.534,22.602-7.534,22.602l-5.65,11.301L183.118,1803
	c0,0,16.95,0,43.319,22.602c-6.592,20.719-5.65,13.184-12.243,20.719s-19.724-0.857-45.203,15.068c0,0-6.592,0-14.126-8.477
	c-7.534-8.475-12.583-11.902-33.902,9.418c-4.709,4.709-20.718,1.883-20.718,1.883s-9.417,6.594-2.825,26.369
	c6.592,19.775,25.427,34.844,32.019,33.902c6.592-0.941,21.66-8.477,18.835,7.533s7.534,48.029,7.534,48.029
	s-0.942,12.242-7.534,20.719c-6.592,8.475-0.1,15.027-0.1,15.027s-12.557,11.301-10.045,20.09c2.511,8.791,25.114-2.51,30.137,5.023
	c5.023,7.535,11.302,15.068,11.302,27.625c0,12.559,0,27.627,0,27.627l25.742-10.047l23.231,30.139c0,0,10.045,5.021,15.068,5.021
	c5.022,0,35.16-16.324,35.16-16.324l11.301,7.535c0,0,28.881-7.535,38.927-13.813c10.045-6.279,20.091,25.113,20.091,25.113
	s0,20.092,3.767,23.859c3.767,3.766,21.347,8.789,21.347,8.789l22.603,27.625l12.557,37.672c0,0,11.301-2.512,23.858,3.768
	c12.557,6.277,47.717,1.256,47.717,1.256s8.79,2.512,7.534-10.047c-1.255-12.557,1.256-30.137,1.256-30.137h17.58
	c0,0-6.278-30.137,20.092-12.557c21.347-1.256,21.347-1.256,21.347-1.256l6.279-17.58l11.301-3.768l6.278-22.602
	c0,0-11.301,0-7.534-7.535c3.767-7.533,10.046-10.045,20.091,2.512c10.046,12.557,15.069,17.58,23.858,27.625
	c8.79,10.047,22.603-5.021,26.37-5.021s-5.023-38.928,5.023-32.648c10.045,6.277,7.534,25.113,12.557,27.625
	c5.023,2.512,10.046-2.512,15.069-11.301c5.023-8.791,18.835,12.557,25.114,15.068c6.279,2.512,69.064,1.256,69.064,1.256
	l43.95,2.51l6.278-13.813l38.927-2.512l3.767,5.023l23.44,0.838l20.51,41.857c0,0,11.301,3.766,7.534,11.301
	c-3.767,7.533-11.301,26.369-1.256,35.16c10.046,8.789,37.671,32.648,53.996,31.393c7.116,12.139,35.16,39.346,40.601,49.391
	c8.79,7.535,48.554-6.697,64.878,0.838c16.324,7.533,38.928,15.068,41.438,8.789c2.512-6.279,5.022-17.58,3.767-22.604
	c-1.255-5.021-2.154-32.137-32.647-45.205c-8.79-3.766-10.046-35.16-10.046-35.16s16.324,7.535,20.092,7.535
	c3.767,0,12.557-15.068,12.557-15.068l7.534-2.512l30.138-13.813v-15.068l28.881-7.535l18.836-21.346v-33.904
	c0,0,30.764-0.629,39.555-9.418c8.789-8.791-7.456-27.15,21.347-23.859c21.975,2.512,14.44,14.441,14.44,14.441
	s25.114,23.857,28.881,26.369c3.768,2.512,16.953-18.207,16.953-18.207l44.577,13.186l10.046,6.277l21.347-2.512l-16.324-25.113
	l53.995-3.768l16.324,26.371l10.046-13.814c0,0,12.558-20.09,21.347-16.324c8.791,3.768,28.882-5.021,28.882-5.021l-10.046-22.604
	l27.625-27.625c0,0-13.813-11.303,2.512-11.303s23.859-15.068,30.137-13.813c6.279,1.256,18.836,0,18.836,0l-23.857-50.229
	c0,0-8.791-12.557,3.767-15.068c12.558-2.51,25.114-3.766,23.858-16.324c-1.256-12.557-22.604-30.137-10.046-33.904
	c12.558-3.766,11.302-5.021,13.813-18.834c11.301,0,20.091-3.768,20.091-3.768s0-11.301-2.512-31.393
	c0,0-1.132-47.879-23.858-60.273c-13.813-7.535-10.045,3.766-8.789,10.045c1.255,6.279,16.324,36.416-11.303,6.279
	c-27.625-30.139-32.648-28.883-32.648-28.883l-32.647-36.414c0,0-8.79-15.07-26.37-2.512c-17.58,12.557-10.045-10.047-12.557-18.836
	c-2.512-8.791,5.022-69.064-13.813-74.087c-18.836-5.022-13.813-8.789-8.791-18.835c5.023-10.046,12.558-30.138,10.046-46.461
	c-2.511-16.324,2.512-37.672,26.37-30.138s26.369-12.557,32.648-22.603c6.278-10.046,23.858-6.278,35.16,5.022
	c11.301,11.302,26.369-6.278,50.229-5.022c23.857,1.256,26.369-1.256,32.647-1.256s18.836,1.256,27.626,16.324
	c23.858,6.278,33.904,3.768,38.927,3.768s12.557-8.79,18.836-16.324c6.278-7.534,36.415-27.626,57.763-30.138
	c21.347-2.511,28.881-1.255,37.671,6.279s11.301-7.534,22.603-11.302c11.302-3.767,16.324-3.767,21.347-2.512
	c5.023,1.256,6.279-21.347,12.558-21.347s32.648-8.79,32.648-8.79l8.79,2.512l25.114-32.648c0,0,3.767,7.534,11.301,8.79
	s16.324-5.023,16.324-5.023s5.023-10.045,13.813-8.79c8.789,1.256,2.511-15.068,7.534-17.579c5.022-2.512,15.068-2.512,18.835-3.768
	c3.768-1.256,3.768-3.767,12.558-5.022s27.625-16.324,16.324-36.416c18.835-13.813,22.603-16.324,32.648-12.557
	c10.045,3.767,22.603-2.512,20.091-8.79c-2.511-6.279-12.557,2.512-17.58-2.512c-5.022-5.022-10.045-23.858,3.768-26.37
	c-7.534-7.534-17.58-11.301-7.534-15.068s13.813-12.557,1.256-15.069c-12.558-2.511-33.904-6.278-35.16-12.557
	c-1.256-6.278-13.813-45.205-13.813-45.205l-37.672-8.79c0,0-3.767-26.37-22.603-33.904c-18.835-7.534-5.022-32.648-5.022-32.648
	s-13.813-7.534-13.813-16.324s-10.046-32.648-10.046-32.648l-11.302-2.511c0,0-15.068-11.301,7.534-32.648
	c-11.301-22.603-7.534-30.137,15.068-45.206c22.604-15.068,12.558-17.58,12.558-17.58l-32.648-25.114c0,0,1.256-6.279-2.512-12.557
	c-3.767-6.279-10.046-7.534-10.046-7.534l-13.813-35.16l7.534-15.068c0,0,21.348-7.534,28.882-2.511
	c7.534,5.022,11.301-7.534,11.301-7.534s-15.068-26.37-1.256-37.671c13.813-11.301,31.393-16.324,45.206-22.603
	c13.813-6.278,15.068-17.58,15.068-17.58s25.114-6.279,40.183,2.511s27.626,20.091,27.626,20.091l16.324-12.557l15.068,1.256
	l12.557-8.79c0,0-17.58-37.671-13.813-47.717c3.767-10.046,11.301-33.904,11.301-33.904l50.229-8.79l6.278,10.045l17.58,2.512
	c0,0,0-28.881,3.768-30.137c3.767-1.256-1.256-31.393-33.904-23.858c-26.37-5.023-57.763-13.813-62.785-13.813
	c0,0-51.484,17.58-62.786,20.091c-11.301,2.512-7.534,11.301-12.557,15.069c-5.022,3.767-40.183,0-47.717-5.023
	s-25.114-23.858-25.114-23.858l-13.813,6.278c0,0-22.603-12.557-30.138-16.324c-7.534-3.767-27.625-15.068-31.393-11.301
	c-3.767,3.767-17.579,0-17.579,0s-23.859,2.512-32.648,1.256c-8.79-1.256-21.348-7.534-25.114-18.836
	c0,0-50.229,17.58-59.019,16.324s-16.324,7.534-16.324,7.534l-66.553-18.835c0,0-3.767-18.835-17.579-25.114
	c-13.813-6.278,3.767-17.58-16.324-26.37c0,0-11.93,0-5.023-14.44c-3.768-10.674-2.512-18.208-2.512-23.859
	c-8.789-0.627-26.369-5.65-26.369-5.65s-3.14-10.046-3.14-15.697c0-5.65-3.767-5.022-5.022-8.162
	c-1.256-3.139-11.93-2.511-8.162-25.114c-3.14-7.534-8.162-10.046-12.558-10.046s-8.162-5.023-8.162-8.162
	s-18.208-13.185-26.997-15.068c-8.791-1.883-11.93-5.651-11.93-8.162s-7.534-5.023-10.046-3.767
	c-2.511,1.256-5.65,12.557-5.65,12.557s-5.651,1.883-5.022-8.79c0.627-10.673-6.279-18.208-6.279-18.208
	s-13.185-21.975-33.904-31.393c-6.277-0.627-5.022,1.884-5.022-8.79c-6.278-4.396-15.696-6.907-21.347-7.535
	c-5.65-0.627-18.208-15.068-18.208-20.719c0-5.65,8.162-20.091,8.162-21.975s-5.651-10.046-5.651-10.046h-13.813l-17.58-29.509
	l-1.255-5.651l-8.79-14.44l7.534-11.929l-0.628-25.114l12.557-20.091l-8.162-35.788l-8.162-0.628l-45.205-23.858l-13.813,9.418
	l-5.65,0.627l0.627,5.023l-1.256,8.79l4.396,17.58l0.628,20.091l-3.768,5.651l-1.256,28.253l-18.835,15.696l-16.324-6.906
	l-8.79-8.79l-12.557-5.023l-8.162,6.907l-10.674-1.256l-14.441,4.395l-6.906,8.79l-3.139,1.883l-23.858-2.511l-6.907-3.139
	l-11.301,3.767l-10.045-8.79l-9.418,11.301l-6.906,25.114l2.511,5.022l12.558,28.882l5.65,5.022l8.162,37.671
	c0,0,0,5.023-3.768,5.023s-8.789-1.884-8.789-1.884l-3.768-3.139l-21.348,1.255c0,0-5.65-2.511-6.906-5.022
	c-1.256-2.512-10.045,4.395-15.068,2.511c-5.022-1.883-23.23-10.673-38.927-47.717c-3.767-6.906-12.496-9.252-18.208-1.256
	c-3.139,4.395-15.696,8.79-20.091,10.046c-4.395,1.255-14.44,21.347-2.511,38.927c11.929,17.58,67.181,72.831,69.063,80.365
	c1.884,7.535-1.256,9.418,3.768,13.813s26.369,15.696,26.369,15.696s5.023,6.906,5.023,13.185c0,6.278,6.906,13.813,6.906,13.813
	l10.674,1.883l7.534,33.276l-10.046,7.534l-26.998,0.628l-14.439,8.162l-3.768-24.486l-16.952,1.255l-20.719,6.279
	c0,0-20.719,5.023-30.137-1.884c-11.301,1.256-22.603,1.884-22.603,1.884s-10.673,3.139-9.418,14.44
	c1.256,11.301-3.139,13.185-3.139,13.185l-18.208-14.44l-15.696-0.628c0,0-0.628-14.441-11.302-25.742
	c-10.673-11.301-10.673-11.301-10.673-11.301s-5.651-2.511-16.952,9.417c-1.883,14.441-3.767,22.603-3.767,25.742
	c0,3.14-2.511,12.557-2.511,12.557l-4.395,1.884l-9.418,13.185c0,0,3.139,21.975-6.906,34.532c-17.58,0-24.486-0.628-24.486-0.628
	l-6.278,10.673c0,0,1.255,13.185-6.907,18.208c-0.628,3.139,5.023,4.395,1.884,15.696s-8.79,25.742-8.79,25.742
	s-2.511,5.022-13.813,2.511c-11.301-2.511-11.301-4.395-15.068,2.511c-3.767,6.907-5.023,9.418-11.301,11.302
	c-6.279,1.883-14.441,5.65-9.418,22.603s11.301,19.463-13.185,26.37c-24.486,6.906-55.251,20.091-62.785,23.23
	c-7.534,3.139-16.324,1.255-16.324,1.255l-16.324,11.929v15.696l-23.23-1.255l-6.279-26.37l-21.347-5.022l-8.79-14.441
	l-19.463-0.628L568.288,754.853z"/>
</svg>
